<mxfile host="app.diagrams.net" modified="2023-08-06T08:10:17.543Z" agent="Mozilla/5.0 (Macintosh; Intel Mac OS X 10_15_7) AppleWebKit/537.36 (KHTML, like Gecko) Chrome/114.0.0.0 Safari/537.36" version="21.6.6" etag="wFew5WswAkPztfk8Nvot" type="github">
  <diagram name="페이지-1" id="EGlkLvECm4ByEVf_RJ4k">
    <mxGraphModel>
      <root>
        <mxCell id="0" />
        <mxCell id="1" parent="0" />
      </root>
    </mxGraphModel>
  </diagram>
</mxfile>
